TITLE ""
FILE "Disc6Track03.mp3" MP3
  TRACK 01 AUDIO
    TITLE "Disc6Track03_01"
    INDEX 01 00:00:00
  TRACK 02 AUDIO
    TITLE "Disc6Track03_02"
    INDEX 01 00:03:15
  TRACK 03 AUDIO
    TITLE "Disc6Track03_03"
    INDEX 01 00:03:46
  TRACK 04 AUDIO
    TITLE "Disc6Track03_04"
    INDEX 01 00:05:00
  TRACK 05 AUDIO
    TITLE "Disc6Track03_05"
    INDEX 01 00:07:08
  TRACK 06 AUDIO
    TITLE "Disc6Track03_06"
    INDEX 01 00:08:37
  TRACK 07 AUDIO
    TITLE "Disc6Track03_07"
    INDEX 01 00:13:34
  TRACK 08 AUDIO
    TITLE "Disc6Track03_08"
    INDEX 01 00:13:66
  TRACK 09 AUDIO
    TITLE "Disc6Track03_09"
    INDEX 01 00:15:16
  TRACK 10 AUDIO
    TITLE "Disc6Track03_10"
    INDEX 01 00:17:40
  TRACK 11 AUDIO
    TITLE "Disc6Track03_11"
    INDEX 01 00:18:65
  TRACK 12 AUDIO
    TITLE "Disc6Track03_12"
    INDEX 01 00:23:52
  TRACK 13 AUDIO
    TITLE "Disc6Track03_13"
    INDEX 01 00:24:07
  TRACK 14 AUDIO
    TITLE "Disc6Track03_14"
    INDEX 01 00:25:30
  TRACK 15 AUDIO
    TITLE "Disc6Track03_15"
    INDEX 01 00:26:49
  TRACK 16 AUDIO
    TITLE "Disc6Track03_16"
    INDEX 01 00:27:72
  TRACK 17 AUDIO
    TITLE "Disc6Track03_17"
    INDEX 01 00:30:70
  TRACK 18 AUDIO
    TITLE "Disc6Track03_18"
    INDEX 01 00:31:25
  TRACK 19 AUDIO
    TITLE "Disc6Track03_19"
    INDEX 01 00:32:48
  TRACK 20 AUDIO
    TITLE "Disc6Track03_20"
    INDEX 01 00:35:71
  TRACK 21 AUDIO
    TITLE "Disc6Track03_21"
    INDEX 01 00:37:19
  TRACK 22 AUDIO
    TITLE "Disc6Track03_22"
    INDEX 01 00:39:08
  TRACK 23 AUDIO
    TITLE "Disc6Track03_23"
    INDEX 01 00:39:38
  TRACK 24 AUDIO
    TITLE "Disc6Track03_24"
    INDEX 01 00:40:51
  TRACK 25 AUDIO
    TITLE "Disc6Track03_25"
    INDEX 01 00:42:36
  TRACK 26 AUDIO
    TITLE "Disc6Track03_26"
    INDEX 01 00:43:49
  TRACK 27 AUDIO
    TITLE "Disc6Track03_27"
    INDEX 01 00:43:67
  TRACK 28 AUDIO
    TITLE "Disc6Track03_28"
    INDEX 01 00:49:07
  TRACK 29 AUDIO
    TITLE "Disc6Track03_29"
    INDEX 01 00:49:36
  TRACK 30 AUDIO
    TITLE "Disc6Track03_30"
    INDEX 01 00:50:53
  TRACK 31 AUDIO
    TITLE "Disc6Track03_31"
    INDEX 01 00:53:48
  TRACK 32 AUDIO
    TITLE "Disc6Track03_32"
    INDEX 01 00:54:63
  TRACK 33 AUDIO
    TITLE "Disc6Track03_33"
    INDEX 01 00:58:67
  TRACK 34 AUDIO
    TITLE "Disc6Track03_34"
    INDEX 01 00:59:19
  TRACK 35 AUDIO
    TITLE "Disc6Track03_35"
    INDEX 01 01:00:40
  TRACK 36 AUDIO
    TITLE "Disc6Track03_36"
    INDEX 01 01:03:34
  TRACK 37 AUDIO
    TITLE "Disc6Track03_37"
    INDEX 01 01:04:53
  TRACK 38 AUDIO
    TITLE "Disc6Track03_38"
    INDEX 01 01:08:10
  TRACK 39 AUDIO
    TITLE "Disc6Track03_39"
    INDEX 01 01:08:41
  TRACK 40 AUDIO
    TITLE "Disc6Track03_40"
    INDEX 01 01:09:58
  TRACK 41 AUDIO
    TITLE "Disc6Track03_41"
    INDEX 01 01:10:58
  TRACK 42 AUDIO
    TITLE "Disc6Track03_42"
    INDEX 01 01:11:73
  TRACK 43 AUDIO
    TITLE "Disc6Track03_43"
    INDEX 01 01:13:62
